<svg xmlns="http://www.w3.org/2000/svg" width="826" height="576" viewBox="0 0 826 576" version="1.1">
   <path
      d="M 367 56.193 C 367 66.358, 366.702 88.920, 366.339 106.332 L 365.677 137.991 362.284 135.403 C 360.418 133.980, 355.309 130.348, 350.931 127.332 L 342.972 121.849 343.015 183.924 C 343.041 220.483, 343.432 246, 343.968 246 C 345.036 246, 353.405 258.461, 353.063 259.541 C 352.934 259.945, 353.229 260.552, 353.717 260.888 C 355.352 262.014, 358.982 268.685, 358.320 269.347 C 357.961 269.706, 358.218 270, 358.892 270 C 359.566 270, 359.840 270.450, 359.500 271 C 359.160 271.550, 359.359 272, 359.941 272 C 360.523 272, 360.909 272.337, 360.798 272.750 C 360.687 273.163, 361.538 275.300, 362.691 277.500 C 363.843 279.700, 364.891 281.950, 365.020 282.500 C 365.149 283.050, 365.394 283.950, 365.565 284.500 C 365.736 285.050, 366.083 298.100, 366.335 313.500 C 366.825 343.372, 368.414 357.962, 373.578 380 C 382.594 418.475, 399.168 454.129, 422.354 484.927 C 431.615 497.229, 451.938 518.200, 464 527.903 C 514.987 568.915, 577.083 584.505, 639.325 571.918 C 660.058 567.726, 686.989 556.962, 706 545.270 C 743.976 521.915, 776.626 485.639, 797.940 443.119 C 821.075 396.968, 829.964 350.371, 824.516 303.799 C 822.461 286.231, 819.771 274.578, 813.414 255.700 C 800.078 216.095, 777.584 180.331, 747.872 151.491 C 714.844 119.434, 680.267 101.132, 635.270 91.891 C 622.569 89.283, 589.507 88.202, 575.330 89.933 C 531.936 95.228, 492.231 113.307, 457.534 143.567 L 450 150.138 449.991 143.819 C 449.976 132.716, 448.028 114.947, 445.911 106.597 C 442.284 92.292, 433.147 75.188, 423.012 63.728 C 410.881 50.012, 391.472 39.987, 373.882 38.352 L 367 37.713 367 56.193 M 585 193.596 C 550.775 197.653, 523.954 209.819, 500.926 231.733 C 488.999 243.083, 480.319 254.830, 473.021 269.500 C 463.055 289.531, 459.215 304.395, 458.294 326.500 C 457.327 349.707, 461.647 370.329, 471.910 391.500 C 479.452 407.060, 487.750 418.507, 500.338 430.721 C 519.748 449.554, 541.776 461.283, 568.927 467.241 C 581.907 470.090, 608.350 470.312, 621.374 467.682 C 672.030 457.449, 711.320 423.063, 727.455 374.840 C 736.901 346.609, 736.675 314.080, 726.839 286.200 C 710.452 239.748, 671.520 205.888, 623.170 196.035 C 613.795 194.124, 592.191 192.744, 585 193.596"
      stroke="none" fill="#1c1c1c" fill-rule="evenodd" />
   <path
      d="M 366.234 48.250 C 366.399 82.105, 366.552 87.731, 366.750 67.108 L 367.031 37.716 373.897 38.354 C 412.688 41.959, 444.650 78.579, 448.952 124.345 C 449.598 131.217, 449.755 126.766, 449.583 106.500 C 449.365 80.759, 449.230 79.034, 446.676 69.500 C 438.863 40.328, 420.825 17.643, 396.503 6.406 C 388.084 2.516, 378.120 0.044, 370.750 0.017 L 366 0 366.234 48.250 M 209 88.695 C 193.634 90.341, 170.628 96.222, 154.944 102.515 C 125.305 114.406, 100.626 131.270, 76.485 156.128 C 56.985 176.206, 43.087 195.954, 30.112 222.019 C 15.816 250.739, 8.208 275.363, 2.308 312 C 0.801 321.355, 0.579 335.885, 0.268 445.250 L -0.081 568 4.209 567.983 C 10.162 567.959, 20.714 565.599, 27.965 562.670 C 55.440 551.573, 76.726 523.271, 82.532 490.119 C 83.723 483.322, 84.002 469.244, 84.009 415.619 C 84.013 379.254, 84.467 344.325, 85.016 338 C 87.134 313.620, 92.974 292.652, 103.538 271.500 C 111.993 254.572, 121.032 241.965, 134.012 229 C 155.015 208.020, 178.146 195.277, 206 189.341 C 216.629 187.076, 243.972 186.810, 254.500 188.869 C 286.316 195.091, 315.369 212.451, 338.070 238.804 L 343.500 245.108 343.235 183.478 L 342.970 121.848 350.930 127.331 C 355.309 130.347, 360.603 134.030, 362.695 135.516 L 366.500 138.216 362.500 134.533 C 356.019 128.567, 337.193 116.506, 324.394 110.121 C 302.644 99.272, 280.757 92.439, 258.344 89.501 C 247.929 88.135, 218.684 87.658, 209 88.695"
      stroke="none" fill="#6368c8" fill-rule="evenodd" />
</svg>